<svg width="42" height="42" xmlns="http://www.w3.org/2000/svg"><path d="M34.5 20.395c.781.533 1.478 1.139 2.09 1.816.612.677 1.14 1.42 1.582 2.227.443.807.768 1.66.976 2.558.209.899.326 1.817.352 2.754 0 1.55-.293 3.008-.879 4.375a11.128 11.128 0 0 1-2.422 3.574 11.587 11.587 0 0 1-3.574 2.403c-1.354.586-2.813.885-4.375.898-1.185 0-2.33-.176-3.438-.527a10.781 10.781 0 0 1-3.046-1.524 11.843 11.843 0 0 1-2.461-2.383 10.758 10.758 0 0 1-1.66-3.066H2v-30h5V1h2.5v2.5H27V1h2.5v2.5h5v16.895ZM4.5 6v5H32V6h-2.5v2.5H27V6H9.5v2.5H7V6H4.5Zm12.559 25c-.04-.404-.059-.82-.059-1.25 0-1.55.293-3.008.879-4.375a11.128 11.128 0 0 1 2.422-3.574 11.587 11.587 0 0 1 3.574-2.403c1.354-.585 2.813-.885 4.375-.898 1.302 0 2.552.215 3.75.645V13.5H4.5V31h12.559Zm11.191 7.5c1.21 0 2.344-.228 3.398-.684a8.843 8.843 0 0 0 2.774-1.875 8.843 8.843 0 0 0 1.875-2.773A8.763 8.763 0 0 0 37 29.75c0-1.21-.228-2.344-.684-3.398a8.843 8.843 0 0 0-1.875-2.774 8.843 8.843 0 0 0-2.773-1.875A8.763 8.763 0 0 0 28.25 21c-1.21 0-2.344.228-3.398.684a8.843 8.843 0 0 0-2.774 1.875 8.843 8.843 0 0 0-1.875 2.773 8.763 8.763 0 0 0-.703 3.418c0 1.21.228 2.344.684 3.398a8.843 8.843 0 0 0 1.875 2.774 8.843 8.843 0 0 0 2.773 1.875 8.763 8.763 0 0 0 3.418.703Zm1.25-10h3.75V31H27v-7.5h2.5v5Z" fill="#B61C74" fill-rule="nonzero"/></svg>